<svg width="10" height="8" viewBox="0 0 10 8" fill="none" xmlns="http://www.w3.org/2000/svg">
<path d="M5 0C6.0987 2.53801e-06 7.07751 0.548061 7.84375 1.1748C8.61634 1.80676 9.22934 2.56444 9.60645 3.08496C9.77971 3.3241 10 3.59808 10 4C10 4.40192 9.77971 4.6759 9.60645 4.91504C9.22934 5.43558 8.61634 6.19325 7.84375 6.8252C7.07751 7.45194 6.0987 8 5 8C3.90129 8 2.9225 7.45194 2.15625 6.8252C1.38365 6.19324 0.770664 5.43558 0.393555 4.91504C0.2203 4.67589 0 4.40193 0 4C0 3.59807 0.2203 3.32411 0.393555 3.08496C0.770663 2.56443 1.38365 1.80676 2.15625 1.1748C2.92249 0.548059 3.90129 0 5 0ZM5 1C4.23329 1 3.47584 1.3883 2.79004 1.94922C2.11061 2.50495 1.55563 3.18666 1.2041 3.67188C1.09672 3.8201 1.04688 3.89044 1.01758 3.94629C0.99903 3.98165 1 3.98905 1 4C1 4.01095 0.999029 4.01835 1.01758 4.05371C1.04688 4.10956 1.09672 4.1799 1.2041 4.32812C1.55563 4.81335 2.11061 5.49505 2.79004 6.05078C3.47584 6.61169 4.23329 7 5 7C5.76671 7 6.52415 6.6117 7.20996 6.05078C7.88939 5.49505 8.44437 4.81335 8.7959 4.32812C8.90329 4.1799 8.95311 4.10956 8.98242 4.05371C9.00098 4.01834 9 4.01095 9 4C9 3.98905 9.00098 3.98166 8.98242 3.94629C8.95311 3.89044 8.90329 3.8201 8.7959 3.67188C8.44437 3.18666 7.88939 2.50496 7.20996 1.94922C6.52415 1.3883 5.7667 1 5 1ZM5 2C6.10457 2 7 2.89543 7 4C7 5.10457 6.10457 6 5 6C3.89543 6 3 5.10457 3 4C3 2.89543 3.89543 2 5 2ZM5 3C4.44772 3 4 3.44772 4 4C4 4.55228 4.44772 5 5 5C5.55228 5 6 4.55228 6 4C6 3.44772 5.55228 3 5 3Z" fill="#D8D8D8"/>
</svg>
